<?xml version="1.0" encoding="UTF-8"?>
<!DOCTYPE svg PUBLIC "-//W3C//DTD SVG 1.1//EN" "http://www.w3.org/Graphics/SVG/1.1/DTD/svg11.dtd">
<svg xmlns="http://www.w3.org/2000/svg" version="1.1" width="158px" height="187px" style="shape-rendering:geometricPrecision; text-rendering:geometricPrecision; image-rendering:optimizeQuality; fill-rule:evenodd; clip-rule:evenodd" xmlns:xlink="http://www.w3.org/1999/xlink">
<g><path style="opacity:1" fill="#c9b3b4" d="M -0.5,-0.5 C 29.5,-0.5 59.5,-0.5 89.5,-0.5C 89.5,11.8333 89.5,24.1667 89.5,36.5C 69.6596,36.1696 49.9929,36.5029 30.5,37.5C 30.5,77.8333 30.5,118.167 30.5,158.5C 29.5018,126.671 29.1684,94.671 29.5,62.5C 21.8333,62.5 14.1667,62.5 6.5,62.5C 6.5,102.5 6.5,142.5 6.5,182.5C 46.6632,183.499 86.9966,183.832 127.5,183.5C 127.5,175.833 127.5,168.167 127.5,160.5C 135.352,160.825 143.018,160.492 150.5,159.5C 150.5,158.833 150.833,158.5 151.5,158.5C 152.497,140.007 152.83,121.341 152.5,102.5C 154.167,102.5 155.833,102.5 157.5,102.5C 157.5,130.5 157.5,158.5 157.5,186.5C 104.833,186.5 52.1667,186.5 -0.5,186.5C -0.5,124.167 -0.5,61.8333 -0.5,-0.5 Z"/></g>
<g><path style="opacity:1" fill="#c8b2b3" d="M 92.5,-0.5 C 114.167,-0.5 135.833,-0.5 157.5,-0.5C 157.5,32.5 157.5,65.5 157.5,98.5C 155.833,98.5 154.167,98.5 152.5,98.5C 153.155,77.8059 152.488,57.4725 150.5,37.5C 131.167,37.5 111.833,37.5 92.5,37.5C 92.5,24.8333 92.5,12.1667 92.5,-0.5 Z"/></g>
<g><path style="opacity:1" fill="#a28f8e" d="M 89.5,-0.5 C 89.8333,-0.5 90.1667,-0.5 90.5,-0.5C 90.5,12.1667 90.5,24.8333 90.5,37.5C 70.5,37.5 50.5,37.5 30.5,37.5C 49.9929,36.5029 69.6596,36.1696 89.5,36.5C 89.5,24.1667 89.5,11.8333 89.5,-0.5 Z"/></g>
<g><path style="opacity:1" fill="#776666" d="M 90.5,-0.5 C 91.1667,-0.5 91.8333,-0.5 92.5,-0.5C 92.5,12.1667 92.5,24.8333 92.5,37.5C 111.833,37.5 131.167,37.5 150.5,37.5C 151.488,58.091 151.821,78.7577 151.5,99.5C 150.833,99.5 150.167,99.5 149.5,99.5C 149.83,79.6596 149.497,59.9929 148.5,40.5C 130.007,39.5031 111.341,39.1698 92.5,39.5C 92.8327,54.5148 92.4993,69.5148 91.5,84.5C 90.5027,77.1968 90.1694,69.8635 90.5,62.5C 90.5,54.8333 90.5,47.1667 90.5,39.5C 70.9928,39.1697 51.6595,39.503 32.5,40.5C 32.5,79.1667 32.5,117.833 32.5,156.5C 32.5,157.167 32.8333,157.5 33.5,157.5C 33.5,157.833 33.5,158.167 33.5,158.5C 32.5,158.5 31.5,158.5 30.5,158.5C 30.5,118.167 30.5,77.8333 30.5,37.5C 50.5,37.5 70.5,37.5 90.5,37.5C 90.5,24.8333 90.5,12.1667 90.5,-0.5 Z"/></g>
<g><path style="opacity:1" fill="#a28f8f" d="M 32.5,40.5 C 51.6595,39.503 70.9928,39.1697 90.5,39.5C 90.5,47.1667 90.5,54.8333 90.5,62.5C 90.1667,62.5 89.8333,62.5 89.5,62.5C 89.5,55.1667 89.5,47.8333 89.5,40.5C 70.5,40.5 51.5,40.5 32.5,40.5 Z"/></g>
<g><path style="opacity:1" fill="#a79594" d="M 148.5,40.5 C 149.497,59.9929 149.83,79.6596 149.5,99.5C 141.833,99.5 134.167,99.5 126.5,99.5C 126.5,99.1667 126.5,98.8333 126.5,98.5C 133.833,98.5 141.167,98.5 148.5,98.5C 148.5,79.1667 148.5,59.8333 148.5,40.5 Z"/></g>
<g><path style="opacity:1" fill="#c9b7b6" d="M 32.5,40.5 C 51.5,40.5 70.5,40.5 89.5,40.5C 89.5,47.8333 89.5,55.1667 89.5,62.5C 70.8333,62.5 52.1667,62.5 33.5,62.5C 33.5,93.8333 33.5,125.167 33.5,156.5C 33.1667,156.5 32.8333,156.5 32.5,156.5C 32.5,117.833 32.5,79.1667 32.5,40.5 Z"/></g>
<g><path style="opacity:1" fill="#9d908e" d="M 150.5,37.5 C 152.488,57.4725 153.155,77.8059 152.5,98.5C 154.167,98.5 155.833,98.5 157.5,98.5C 157.5,98.8333 157.5,99.1667 157.5,99.5C 155.5,99.5 153.5,99.5 151.5,99.5C 151.821,78.7577 151.488,58.091 150.5,37.5 Z"/></g>
<g><path style="opacity:1" fill="#e4d5d7" d="M 30.5,158.5 C 62.5,159.167 94.5,159.833 126.5,160.5C 126.5,167.833 126.5,175.167 126.5,182.5C 86.5,182.5 46.5,182.5 6.5,182.5C 6.5,142.5 6.5,102.5 6.5,62.5C 14.1667,62.5 21.8333,62.5 29.5,62.5C 29.1684,94.671 29.5018,126.671 30.5,158.5 Z"/></g>
<g><path style="opacity:1" fill="#e4d6d8" d="M 89.5,62.5 C 89.5,70.1667 89.5,77.8333 89.5,85.5C 90.8333,85.5 92.1667,85.5 93.5,85.5C 93.5,77.8333 93.5,70.1667 93.5,62.5C 104.5,62.5 115.5,62.5 126.5,62.5C 126.5,74.5 126.5,86.5 126.5,98.5C 126.5,98.8333 126.5,99.1667 126.5,99.5C 119.087,98.8721 112.087,99.5388 105.5,101.5C 112.648,102.492 119.981,102.825 127.5,102.5C 127.5,120.5 127.5,138.5 127.5,156.5C 96.1667,156.5 64.8333,156.5 33.5,156.5C 33.5,125.167 33.5,93.8333 33.5,62.5C 52.1667,62.5 70.8333,62.5 89.5,62.5 Z"/></g>
<g><path style="opacity:1" fill="#c6b4b4" d="M 148.5,40.5 C 148.5,59.8333 148.5,79.1667 148.5,98.5C 141.167,98.5 133.833,98.5 126.5,98.5C 126.5,86.5 126.5,74.5 126.5,62.5C 115.5,62.5 104.5,62.5 93.5,62.5C 93.5,70.1667 93.5,77.8333 93.5,85.5C 92.1667,85.5 90.8333,85.5 89.5,85.5C 89.5,77.8333 89.5,70.1667 89.5,62.5C 89.8333,62.5 90.1667,62.5 90.5,62.5C 90.1694,69.8635 90.5027,77.1968 91.5,84.5C 92.4993,69.5148 92.8327,54.5148 92.5,39.5C 111.341,39.1698 130.007,39.5031 148.5,40.5 Z"/></g>
<g><path style="opacity:1" fill="#c9b3b4" d="M 126.5,62.5 C 125.232,61.213 125.565,60.213 127.5,59.5C 121.428,57.0745 115.095,55.9078 108.5,56C 107.022,53.9614 105.022,53.1281 102.5,53.5C 102.5,50.5 102.5,47.5 102.5,44.5C 116.833,44.5 131.167,44.5 145.5,44.5C 146.963,58.4513 147.63,72.4513 147.5,86.5C 146.5,86.5 145.5,86.5 144.5,86.5C 144.5,85.5 144.5,84.5 144.5,83.5C 141.016,83.6724 138.016,82.6724 135.5,80.5C 134.558,80.6082 133.725,80.9415 133,81.5C 132.667,79.8333 132.333,78.1667 132,76.5C 131.667,77.1667 131.333,77.8333 131,78.5C 130.667,74.1667 130.333,69.8333 130,65.5C 129.667,66.5 129.333,67.5 129,68.5C 128.998,65.9488 128.164,63.9488 126.5,62.5 Z"/></g>
<g><path style="opacity:1" fill="#6e605f" d="M 126.5,99.5 C 134.167,99.5 141.833,99.5 149.5,99.5C 135.167,100.167 120.833,100.833 106.5,101.5C 106.167,101.5 105.833,101.5 105.5,101.5C 112.087,99.5388 119.087,98.8721 126.5,99.5 Z"/></g>
<g><path style="opacity:1" fill="#473838" d="M 149.5,99.5 C 150.167,99.5 150.833,99.5 151.5,99.5C 153.5,99.5 155.5,99.5 157.5,99.5C 157.5,100.167 157.5,100.833 157.5,101.5C 155.5,101.5 153.5,101.5 151.5,101.5C 150.833,101.5 150.167,101.5 149.5,101.5C 135.167,101.5 120.833,101.5 106.5,101.5C 120.833,100.833 135.167,100.167 149.5,99.5 Z"/></g>
<g><path style="opacity:1" fill="#766566" d="M 149.5,101.5 C 150.167,101.5 150.833,101.5 151.5,101.5C 151.5,120.5 151.5,139.5 151.5,158.5C 150.833,158.5 150.5,158.833 150.5,159.5C 111.506,158.663 72.5062,158.33 33.5,158.5C 33.5,158.167 33.5,157.833 33.5,157.5C 72.1667,157.5 110.833,157.5 149.5,157.5C 149.5,138.833 149.5,120.167 149.5,101.5 Z"/></g>
<g><path style="opacity:1" fill="#a08e8d" d="M 151.5,101.5 C 153.5,101.5 155.5,101.5 157.5,101.5C 157.5,101.833 157.5,102.167 157.5,102.5C 155.833,102.5 154.167,102.5 152.5,102.5C 152.83,121.341 152.497,140.007 151.5,158.5C 151.5,139.5 151.5,120.5 151.5,101.5 Z"/></g>
<g><path style="opacity:1" fill="#c8b4b4" d="M 127.5,102.5 C 134.5,102.5 141.5,102.5 148.5,102.5C 148.5,120.5 148.5,138.5 148.5,156.5C 141.5,156.5 134.5,156.5 127.5,156.5C 127.5,138.5 127.5,120.5 127.5,102.5 Z"/></g>
<g><path style="opacity:1" fill="#a59898" d="M 105.5,101.5 C 105.833,101.5 106.167,101.5 106.5,101.5C 120.833,101.5 135.167,101.5 149.5,101.5C 149.5,120.167 149.5,138.833 149.5,157.5C 110.833,157.5 72.1667,157.5 33.5,157.5C 32.8333,157.5 32.5,157.167 32.5,156.5C 32.8333,156.5 33.1667,156.5 33.5,156.5C 64.8333,156.5 96.1667,156.5 127.5,156.5C 134.5,156.5 141.5,156.5 148.5,156.5C 148.5,138.5 148.5,120.5 148.5,102.5C 141.5,102.5 134.5,102.5 127.5,102.5C 119.981,102.825 112.648,102.492 105.5,101.5 Z"/></g>
<g><path style="opacity:1" fill="#9a8d8e" d="M 30.5,158.5 C 31.5,158.5 32.5,158.5 33.5,158.5C 72.5062,158.33 111.506,158.663 150.5,159.5C 143.018,160.492 135.352,160.825 127.5,160.5C 127.167,160.5 126.833,160.5 126.5,160.5C 94.5,159.833 62.5,159.167 30.5,158.5 Z"/></g>
<g><path style="opacity:1" fill="#d9c7c8" d="M 126.5,160.5 C 126.833,160.5 127.167,160.5 127.5,160.5C 127.5,168.167 127.5,175.833 127.5,183.5C 86.9966,183.832 46.6632,183.499 6.5,182.5C 46.5,182.5 86.5,182.5 126.5,182.5C 126.5,175.167 126.5,167.833 126.5,160.5 Z"/></g>
</svg>
